<?xml version="1.0" encoding="UTF-8" standalone="no"?>
<!DOCTYPE svg PUBLIC "-//W3C//DTD SVG 1.1//EN" "http://www.w3.org/Graphics/SVG/1.1/DTD/svg11.dtd">
<svg width="100%" height="100%" viewBox="0 0 83 105" version="1.1" xmlns="http://www.w3.org/2000/svg" xmlns:xlink="http://www.w3.org/1999/xlink" xml:space="preserve" xmlns:serif="http://www.serif.com/" style="fill-rule:evenodd;clip-rule:evenodd;stroke-linejoin:round;stroke-miterlimit:2;">
    <g transform="matrix(1,0,0,1,-2157.3,-3420.15)">
        <g transform="matrix(1,0,0,1,2157.3,3420.15)">
            <rect x="0" y="0" width="82.129" height="104.736" style="fill-opacity:0;"/>
            <path d="M0,89.453C0,99.658 5.029,104.736 15.137,104.736L66.992,104.736C77.1,104.736 82.129,99.609 82.129,89.453L82.129,34.717C82.129,29.883 81.25,27.49 78.516,24.707L57.764,4.004C54.932,1.123 52.148,0.049 47.754,0.049L15.137,0.049C5.078,0.049 0,5.225 0,15.381L0,89.453ZM7.861,89.307L7.861,15.527C7.861,10.693 10.449,7.91 15.527,7.91L47.461,7.91C50.244,7.91 52.1,8.643 53.857,10.498L72.022,28.857C73.731,30.566 74.268,32.129 74.268,35.303L74.268,89.307C74.268,94.19 71.68,96.875 66.602,96.875L15.479,96.875C10.449,96.875 7.861,94.19 7.861,89.307ZM17.773,81.836C17.773,86.035 20.361,88.623 24.512,88.623L31.152,88.623L31.152,64.404C31.152,63.916 30.859,63.672 30.371,63.672L17.773,63.672L17.773,81.836ZM17.773,58.252L33.643,58.252C35.498,58.252 36.572,59.375 36.572,61.182L36.572,88.623L45.947,88.623L45.947,45.313L24.512,45.313C20.361,45.313 17.773,47.9 17.773,52.148L17.773,58.252ZM51.367,88.623L57.666,88.623C61.816,88.623 64.453,86.035 64.453,81.836L64.453,52.148C64.453,47.9 61.816,45.313 57.666,45.313L51.367,45.313L51.367,88.623Z" style="fill:white;fill-opacity:0.85;fill-rule:nonzero;"/>
        </g>
    </g>
</svg>
