<?xml version="1.0" encoding="UTF-8" standalone="no"?>
<!DOCTYPE svg PUBLIC "-//W3C//DTD SVG 1.1//EN" "http://www.w3.org/Graphics/SVG/1.1/DTD/svg11.dtd">
<svg width="100%" height="100%" viewBox="0 0 87 118" version="1.1" xmlns="http://www.w3.org/2000/svg" xmlns:xlink="http://www.w3.org/1999/xlink" xml:space="preserve" xmlns:serif="http://www.serif.com/" style="fill-rule:evenodd;clip-rule:evenodd;stroke-linejoin:round;stroke-miterlimit:2;">
    <g transform="matrix(1,0,0,1,-1893.79,-3400.42)">
        <g transform="matrix(1,0,0,1,1893.79,3400.42)">
            <rect x="0" y="0" width="86.67" height="117.432" style="fill-opacity:0;"/>
            <path d="M15.332,110.205L71.338,110.205C81.543,110.205 86.67,105.127 86.67,95.068L86.67,46.338C86.67,36.279 81.543,31.201 71.338,31.201L57.715,31.201L57.715,39.063L71.191,39.063C76.025,39.063 78.809,41.699 78.809,46.777L78.809,94.629C78.809,99.707 76.025,102.344 71.191,102.344L15.43,102.344C10.547,102.344 7.861,99.707 7.861,94.629L7.861,46.777C7.861,41.699 10.547,39.063 15.43,39.063L28.955,39.063L28.955,31.201L15.332,31.201C5.127,31.201 0,36.279 0,46.338L0,95.068C0,105.127 5.127,110.205 15.332,110.205ZM43.311,71.973C45.41,71.973 47.217,70.215 47.217,68.164L47.217,18.018L46.924,10.693L50.195,14.16L57.617,22.07C58.301,22.852 59.277,23.242 60.254,23.242C62.256,23.242 63.818,21.777 63.818,19.775C63.818,18.75 63.379,17.969 62.647,17.236L46.143,1.318C45.166,0.342 44.336,0 43.311,0C42.334,0 41.504,0.342 40.478,1.318L23.975,17.236C23.242,17.969 22.852,18.75 22.852,19.775C22.852,21.777 24.316,23.242 26.367,23.242C27.295,23.242 28.369,22.852 29.053,22.07L36.426,14.16L39.746,10.693L39.453,18.018L39.453,68.164C39.453,70.215 41.211,71.973 43.311,71.973Z" style="fill:white;fill-opacity:0.85;fill-rule:nonzero;"/>
        </g>
    </g>
</svg>
