<?xml version="1.0" encoding="UTF-8" standalone="no"?>
<!DOCTYPE svg PUBLIC "-//W3C//DTD SVG 1.1//EN" "http://www.w3.org/Graphics/SVG/1.1/DTD/svg11.dtd">
<svg width="100%" height="100%" viewBox="0 0 97 104" version="1.1" xmlns="http://www.w3.org/2000/svg" xmlns:xlink="http://www.w3.org/1999/xlink" xml:space="preserve" xmlns:serif="http://www.serif.com/" style="fill-rule:evenodd;clip-rule:evenodd;stroke-linejoin:round;stroke-miterlimit:2;">
    <g transform="matrix(1,0,0,1,-2049.31,-3405.4)">
        <g transform="matrix(1,0,0,1,2049.31,3405.4)">
            <rect x="0" y="0" width="96.606" height="103.198" style="fill-opacity:0;"/>
            <path d="M15.332,96.448L72.656,96.448C81.445,96.448 86.523,91.369 86.523,81.311L86.523,29.113L78.662,36.975L78.662,80.92C78.662,85.998 75.928,88.586 72.559,88.586L15.479,88.586C10.596,88.586 7.861,85.998 7.861,80.92L7.861,25.5C7.861,20.422 10.596,17.785 15.479,17.785L59.961,17.785L67.822,9.924L15.332,9.924C5.176,9.924 0,15.002 0,25.061L0,81.311C0,91.418 5.176,96.448 15.332,96.448ZM33.106,64.807L42.627,60.657L88.232,15.1L81.543,8.508L35.986,54.065L31.592,63.244C31.201,64.075 32.178,65.198 33.106,64.807ZM91.846,11.535L95.361,7.922C97.022,6.164 97.022,3.821 95.361,2.209L94.238,1.037C92.725,-0.476 90.332,-0.281 88.721,1.282L85.156,4.797L91.846,11.535Z" style="fill:white;fill-opacity:0.85;fill-rule:nonzero;"/>
        </g>
    </g>
</svg>
