<?xml version="1.0" encoding="UTF-8" standalone="no"?>
<!DOCTYPE svg PUBLIC "-//W3C//DTD SVG 1.1//EN" "http://www.w3.org/Graphics/SVG/1.1/DTD/svg11.dtd">
<svg width="100%" height="100%" viewBox="0 0 99 62" version="1.1" xmlns="http://www.w3.org/2000/svg" xmlns:xlink="http://www.w3.org/1999/xlink" xml:space="preserve" xmlns:serif="http://www.serif.com/" style="fill-rule:evenodd;clip-rule:evenodd;stroke-linejoin:round;stroke-miterlimit:2;">
    <g transform="matrix(1,0,0,1,-1594.69,-3495.83)">
        <g id="light-mode-mobile-wrengo-logo" serif:id="light mode mobile wrengo logo" transform="matrix(1,0,0,1,1593.56,3464.31)">
            <path d="M32.471,93.311C40.478,93.311 47.07,86.719 47.07,78.76C47.07,70.801 40.478,64.209 32.471,64.209C24.512,64.209 17.92,70.801 17.92,78.76C17.92,86.67 24.463,93.311 32.471,93.311ZM68.311,93.311C76.269,93.311 82.861,86.719 82.861,78.76C82.861,70.801 76.269,64.209 68.311,64.209C60.303,64.209 53.711,70.801 53.711,78.76C53.711,86.719 60.303,93.311 68.311,93.311Z" style="fill:rgb(13,13,13);fill-opacity:0.85;fill-rule:nonzero;"/>
            <g transform="matrix(1,0,0,1,-0.0001,4)">
                <path d="M50.391,61.279C58.35,61.279 64.99,54.639 64.99,46.68C64.99,38.721 58.35,32.08 50.391,32.08C42.432,32.08 35.791,38.721 35.791,46.68C35.791,54.639 42.432,61.279 50.391,61.279Z" style="fill:rgb(13,13,13);fill-opacity:0.85;fill-rule:nonzero;"/>
            </g>
            <g transform="matrix(1,0,0,1,-34.664,-0.563042)">
                <path d="M50.391,61.279C58.35,61.279 64.99,54.639 64.99,46.68C64.99,38.721 58.35,32.08 50.391,32.08C42.432,32.08 35.791,38.721 35.791,46.68C35.791,54.639 42.432,61.279 50.391,61.279Z" style="fill:rgb(13,13,13);fill-opacity:0.85;fill-rule:nonzero;"/>
            </g>
            <g transform="matrix(1,0,0,1,34.6764,-0.563042)">
                <path d="M50.391,61.279C58.35,61.279 64.99,54.639 64.99,46.68C64.99,38.721 58.35,32.08 50.391,32.08C42.432,32.08 35.791,38.721 35.791,46.68C35.791,54.639 42.432,61.279 50.391,61.279Z" style="fill:rgb(13,13,13);fill-opacity:0.85;fill-rule:nonzero;"/>
            </g>
        </g>
    </g>
</svg>
