<?xml version="1.0" encoding="UTF-8" standalone="no"?>
<!DOCTYPE svg PUBLIC "-//W3C//DTD SVG 1.1//EN" "http://www.w3.org/Graphics/SVG/1.1/DTD/svg11.dtd">
<svg width="100%" height="100%" viewBox="0 0 106 106" version="1.1" xmlns="http://www.w3.org/2000/svg" xmlns:xlink="http://www.w3.org/1999/xlink" xml:space="preserve" xmlns:serif="http://www.serif.com/" style="fill-rule:evenodd;clip-rule:evenodd;stroke-linejoin:round;stroke-miterlimit:2;">
    <g transform="matrix(1,0,0,1,-1992,-3511.48)">
        <g transform="matrix(1,0,0,1,2088.7,3398.59)">
            <g transform="matrix(1,0,0,1,-96.6989,112.895)">
                <path d="M52.783,77.881C66.357,77.881 77.637,66.602 77.637,52.978C77.637,39.307 66.357,28.027 52.783,28.027C39.209,28.027 27.93,39.307 27.93,52.978C27.93,66.602 39.209,77.881 52.783,77.881ZM52.832,18.994C55.127,18.994 57.031,17.09 57.031,14.746L57.031,4.248C57.031,1.904 55.127,0 52.832,0C50.488,0 48.584,1.904 48.584,4.248L48.584,14.746C48.584,17.09 50.488,18.994 52.832,18.994ZM76.758,29.004C78.418,30.615 81.104,30.664 82.764,29.004L90.234,21.533C91.846,19.922 91.846,17.188 90.234,15.527C88.623,13.916 85.938,13.916 84.277,15.527L76.758,23.047C75.147,24.707 75.147,27.393 76.758,29.004ZM86.67,52.978C86.67,55.273 88.623,57.178 90.918,57.178L101.416,57.178C103.711,57.178 105.615,55.273 105.615,52.978C105.615,50.684 103.711,48.731 101.416,48.731L90.918,48.731C88.623,48.731 86.67,50.684 86.67,52.978ZM76.758,76.953C75.147,78.613 75.147,81.299 76.758,82.91L84.277,90.479C85.938,92.041 88.623,91.992 90.234,90.43C91.846,88.769 91.846,86.084 90.234,84.473L82.715,76.953C81.104,75.391 78.418,75.391 76.758,76.953ZM52.832,86.963C50.488,86.963 48.584,88.867 48.584,91.162L48.584,101.709C48.584,104.004 50.488,105.908 52.832,105.908C55.127,105.908 57.031,104.004 57.031,101.709L57.031,91.162C57.031,88.867 55.127,86.963 52.832,86.963ZM28.857,76.953C27.197,75.391 24.463,75.391 22.852,76.953L15.381,84.424C13.77,86.035 13.77,88.721 15.332,90.381C16.943,91.943 19.678,91.992 21.338,90.43L28.809,82.91C30.42,81.299 30.42,78.613 28.857,76.953ZM18.945,52.978C18.945,50.684 16.992,48.731 14.697,48.731L4.199,48.731C1.904,48.731 0,50.684 0,52.978C0,55.273 1.904,57.178 4.199,57.178L14.697,57.178C16.992,57.178 18.945,55.273 18.945,52.978ZM28.809,29.004C30.42,27.441 30.42,24.658 28.857,23.047L21.387,15.527C19.775,13.965 17.041,13.916 15.43,15.527C13.818,17.188 13.818,19.922 15.381,21.484L22.852,29.004C24.463,30.615 27.148,30.615 28.809,29.004Z" style="fill:white;fill-opacity:0.85;fill-rule:nonzero;"/>
            </g>
        </g>
    </g>
</svg>
