<?xml version="1.0" encoding="UTF-8" standalone="no"?>
<!DOCTYPE svg PUBLIC "-//W3C//DTD SVG 1.1//EN" "http://www.w3.org/Graphics/SVG/1.1/DTD/svg11.dtd">
<svg width="100%" height="100%" viewBox="0 0 97 97" version="1.1" xmlns="http://www.w3.org/2000/svg" xmlns:xlink="http://www.w3.org/1999/xlink" xml:space="preserve" xmlns:serif="http://www.serif.com/" style="fill-rule:evenodd;clip-rule:evenodd;stroke-linejoin:round;stroke-miterlimit:2;">
    <g transform="matrix(1,0,0,1,-1975.22,-3308.48)">
        <g transform="matrix(1,0,0,1,1975.22,3308.48)">
            <rect x="0" y="0" width="96.338" height="96.924" style="fill-opacity:0;"/>
            <path d="M75.537,65.43C49.121,65.43 32.227,48.877 32.227,22.412C32.227,16.943 33.545,9.131 35.303,5.078C35.742,3.955 35.84,3.271 35.84,2.783C35.84,1.465 34.863,0 32.959,0C32.422,0 31.25,0.146 30.176,0.537C12.109,7.764 0,27.197 0,47.656C0,76.367 21.875,96.875 50.488,96.875C71.533,96.875 89.746,84.131 95.801,68.213C96.24,67.09 96.338,65.918 96.338,65.478C96.338,63.672 94.824,62.451 93.457,62.451C92.822,62.451 92.285,62.598 91.357,62.891C87.598,64.111 81.543,65.43 75.537,65.43Z" style="fill:white;fill-opacity:0.85;fill-rule:nonzero;"/>
        </g>
    </g>
</svg>
