<?xml version="1.0" encoding="UTF-8" standalone="no"?>
<!DOCTYPE svg PUBLIC "-//W3C//DTD SVG 1.1//EN" "http://www.w3.org/Graphics/SVG/1.1/DTD/svg11.dtd">
<svg width="100%" height="100%" viewBox="0 0 100 100" version="1.1" xmlns="http://www.w3.org/2000/svg" xmlns:xlink="http://www.w3.org/1999/xlink" xml:space="preserve" xmlns:serif="http://www.serif.com/" style="fill-rule:evenodd;clip-rule:evenodd;stroke-linejoin:round;stroke-miterlimit:2;">
    <g transform="matrix(1,0,0,1,-2120.56,-3154.79)">
        <g transform="matrix(1,0,0,1,2120.56,3154.79)">
            <path d="M49.805,99.609C22.607,99.609 0,77.002 0,49.805C0,22.559 22.559,0 49.756,0C77.002,0 99.609,22.559 99.609,49.805C99.609,77.002 77.051,99.609 49.805,99.609ZM49.805,91.309C72.852,91.309 91.309,72.852 91.309,49.805C91.309,26.758 72.803,8.301 49.756,8.301C26.709,8.301 8.35,26.758 8.35,49.805C8.35,72.852 26.758,91.309 49.805,91.309ZM49.365,32.91C45.85,32.91 43.018,30.078 43.018,26.514C43.018,22.949 45.85,20.117 49.365,20.117C52.93,20.117 55.713,22.949 55.713,26.514C55.713,30.078 52.93,32.91 49.365,32.91ZM41.26,77.148C39.258,77.148 37.695,75.684 37.695,73.682C37.695,71.777 39.258,70.264 41.26,70.264L47.314,70.264L47.314,47.9L42.09,47.9C40.088,47.9 38.525,46.436 38.525,44.434C38.525,42.529 40.088,41.016 42.09,41.016L51.269,41.016C53.76,41.016 55.078,42.773 55.078,45.41L55.078,70.264L61.133,70.264C63.135,70.264 64.697,71.777 64.697,73.682C64.697,75.684 63.135,77.148 61.133,77.148L41.26,77.148Z" style="fill:rgb(13,13,13);fill-opacity:0.85;"/>
        </g>
    </g>
</svg>
